<svg version="1.1" class="clearos-svg clearfoundation app-vendor-clearfoundation app-free app-category-system app-sub-category-account-manager" viewBox="0 0 400 400" preserveAspectRatio="xMinYMin" xmlns="http://www.w3.org/2000/svg" xmlns:xlink= "http://www.w3.org/1999/xlink">
<g transform="translate(0,1.3329999)" display="none">
	<g display="inline">
		<path d="M81.984,71.004h33.076l42.445,165.935c5.829,23.278,10.082,44.35,12.758,63.213
			c3.279-22.418,8.137-44.35,14.579-65.787l47.737-163.36h32.802l50.611,165.089c5.947,18.916,10.974,40.27,15.065,64.061
			c2.355-17.392,6.816-38.589,13.387-63.578l42.769-165.571h33.076l-71.85,268.657h-30.874l-53.407-180.144
			c-2.361-7.982-5.326-17.987-8.897-30.021c-3.565-12.034-5.424-19.282-5.537-21.74c-2.692,16.171-6.974,33.876-12.851,53.108
			l-52.494,178.801h-30.834L81.984,71.004z"/>
	</g>
</g>
<g transform="translate(0,1.3329999)" display="none">
	<g display="inline">
		<path d="M150.803,339.665V71.004h35.279l146.442,224.558h1.455c-0.247-3.429-0.792-14.086-1.634-31.971
			c-0.603-13.966-0.91-24.811-0.91-32.519c0-2.205,0-4.163,0-5.868V71.02h28.854v268.657h-35.284L178.182,114.186h-1.471
			c1.958,26.463,2.939,50.718,2.939,72.771v152.708H150.803z"/>
	</g>
</g>
<g transform="translate(0,1.3329999)" display="none">
	<g display="inline">
		<path d="M170.766,333.886v-29.961c11.024,4.66,23.029,8.348,36.019,11.037c12.984,2.694,25.847,4.05,38.593,4.05
			c20.862,0,36.57-3.952,47.123-11.874c10.559-7.918,15.837-18.916,15.837-33.047c0-9.324-1.871-16.953-5.613-22.913
			c-3.747-5.953-10.008-11.448-18.782-16.474c-8.778-5.026-22.12-10.742-40.039-17.121c-25.037-8.958-42.857-19.574-53.452-31.845
			c-10.598-12.266-15.897-28.276-15.897-48.037c0-20.724,7.752-37.221,23.263-49.481c15.51-12.261,36.021-18.392,61.547-18.392
			c26.635,0,51.132,4.9,73.489,14.7l-9.626,27.221c-22.147-9.329-43.68-13.989-64.598-13.989c-16.57,0-29.523,3.563-38.848,10.676
			c-9.323,7.118-13.986,16.995-13.986,29.637c0,9.324,1.716,16.963,5.152,22.918c3.434,5.953,9.234,11.411,17.397,16.381
			c8.161,4.971,20.649,10.46,37.458,16.474c28.229,10.065,47.579,20.863,58.055,32.397c10.475,11.539,15.714,26.511,15.714,44.91
			c0,23.556-8.553,41.927-25.658,55.101c-17.104,13.173-40.321,19.773-69.645,19.773
			C212.413,346.036,187.916,341.985,170.766,333.886L170.766,333.886z"/>
	</g>
</g>
<g transform="translate(0,1.3329999)" display="none">
	<g display="inline">
		<path d="M142.218,71.009h33.077l61.742,173.833c7.105,19.969,12.739,39.391,16.908,58.258
			c4.41-19.85,10.157-39.631,17.271-59.357L332.59,71.006h33.623l-96.844,268.659h-30.861L142.218,71.009z"/>
	</g>
</g>
<g transform="translate(0,1.3329999)" display="none">
	<g display="inline">
		<path d="M154.708,208.841c0-27.668,5.116-51.908,15.355-72.721c10.24-20.811,25.124-36.85,44.653-48.113
			c19.528-11.26,42.532-16.895,68.989-16.895c28.177,0,52.8,5.145,73.868,15.437l-13.224,26.816
			c-20.339-9.547-40.676-14.321-61.016-14.321c-29.531,0-52.84,9.826-69.918,29.471c-17.09,19.645-25.634,46.542-25.634,80.698
			c0,35.143,8.237,62.273,24.716,81.429c16.476,19.155,39.968,28.731,70.473,28.731c18.745,0,40.121-3.365,64.129-10.095v27.481
			c-18.621,7.031-41.592,10.545-68.91,10.545c-39.582,0-70.045-12.014-91.421-36.037
			C165.395,287.237,154.708,253.093,154.708,208.841z"/>
	</g>
</g>
<path fill="#AA0707" d="M91.666,184.647"/>
<path fill="#AA0707" d="M123.245,247.805"/>
<path fill="#AA0707" d="M91.666,184.647"/>
<path fill="#AA0707" d="M123.245,247.805"/>
<g>
	<path fill="#686868" d="M391.974,202.027c-5.782,5.772-15.158,5.772-20.957,0l-9.642-9.618c-5.782-5.774-5.782-15.15,0-20.964
		l0.906-0.875c5.781-5.798,15.157-5.798,20.955,0l9.643,9.618c5.782,5.79,5.768,15.166,0,20.979L391.974,202.027z"/>
	<polygon fill="#686868" points="377.143,215.568 377.143,215.568 309.556,283.133 295.038,297.666 265.769,268.381 
		347.842,186.314 347.842,186.314 	"/>
	<polygon fill="#686868" points="230.765,335.279 256.769,278.227 285.49,306.26 	"/>
	<path fill="#686868" d="M109.061,333.404c0,8.203-6.641,14.861-14.822,14.861H80.001c-8.181,0-14.822-6.658-14.822-14.861v-61.117
		c0-8.234,6.625-14.83,14.822-14.83h14.22c8.181,0,14.822,6.596,14.822,14.83L109.061,333.404L109.061,333.404z"/>
	<path fill="#686868" d="M197.025,302.838L347.437,152.42v-11.729v-41.38V81.402c0-16.369-13.283-29.668-29.646-29.668H214.043
		c-16.362,0-29.628,13.283-29.628,29.668v3.079H17.62c-8.188,0-14.83,6.634-14.83,14.813v188.712c0,8.173,6.657,14.813,14.83,14.813
		h21.315v-49.91c0-17.979,14.596-32.527,32.582-32.527h31.239c17.956,0,32.543,14.549,32.543,32.527v49.912h61.727V302.838
		L197.025,302.838z"/>
</g>
</svg>
